<svg width="270" height="22" viewBox="0 0 270 22" fill="none" xmlns="http://www.w3.org/2000/svg">
<path d="M268.998 0.540508C269.342 0.900846 269.523 1.31032 269.523 1.80169C269.523 2.29306 269.342 2.71892 268.998 3.0465C268.654 3.37408 268.211 3.53787 267.703 3.53787C267.178 3.53787 266.735 3.37408 266.391 3.0465C266.047 2.71892 265.883 2.29306 265.883 1.80169C265.883 1.31032 266.063 0.900846 266.407 0.540508C266.752 0.180169 267.195 0 267.703 0C268.211 0 268.654 0.180169 268.998 0.540508ZM266.194 15.0032V6.66626C266.194 5.84731 266.867 5.17577 267.686 5.17577C268.506 5.17577 269.179 5.84731 269.179 6.66626V14.9868C269.179 15.8058 268.506 16.4773 267.686 16.4773C266.867 16.4937 266.194 15.8221 266.194 15.0032Z" fill="#B2B2B2"/>
<path d="M258.979 16.4944C258.012 16.4944 257.143 15.9212 256.782 15.0203L253.519 7.20753C253.109 6.22479 253.831 5.16016 254.88 5.16016C255.487 5.16016 256.028 5.52049 256.257 6.09376L258.979 12.8583L261.701 6.09376C261.93 5.53687 262.472 5.16016 263.078 5.16016C264.144 5.16016 264.849 6.24117 264.439 7.20753L261.176 15.0367C260.815 15.9212 259.946 16.4944 258.979 16.4944Z" fill="#B2B2B2"/>
<path d="M236.925 11.8898C237.728 12.6924 238.466 13.4295 239.204 14.1665C237.532 16.2139 235.449 17.4751 232.678 16.951C230.104 16.4596 228.415 14.8708 227.743 12.3157C227.038 9.61315 228.284 6.81234 230.694 5.4365C233.105 4.06066 236.121 4.421 238.105 6.3701C240.319 8.53213 242.483 10.7433 244.68 12.9217C245.812 14.0355 247.484 14.1665 248.698 13.2657C250.058 12.2502 250.304 10.2847 249.255 8.95799C248.189 7.63129 246.222 7.41836 244.943 8.53213C244.5 8.90885 244.139 9.38384 243.762 9.8097C242.942 8.99075 242.205 8.25369 241.467 7.51664C243.09 5.51839 245.14 4.15894 248.189 4.76496C250.731 5.25633 252.616 7.33647 253.043 9.94073C253.453 12.4959 252.108 15.1329 249.763 16.3613C247.369 17.6061 244.467 17.1803 242.516 15.2639C240.335 13.1019 238.171 10.9235 235.99 8.76144C235.056 7.82784 233.744 7.54939 232.596 8.07352C231.432 8.59765 230.793 9.51488 230.776 10.8088C230.76 12.0864 231.35 13.0527 232.514 13.5933C233.695 14.1338 234.81 13.97 235.794 13.1183C236.22 12.7252 236.564 12.2829 236.925 11.8898Z" fill="#B2B2B2"/>
<path d="M223.054 16.4941C222.152 16.4941 221.382 15.9045 221.152 15.0528L219.66 9.51667L218.152 15.0528C217.922 15.9045 217.151 16.4941 216.266 16.4941C215.397 16.4941 214.626 15.9209 214.38 15.0692L212.052 6.94516C211.806 6.07707 212.462 5.20898 213.364 5.20898C213.97 5.20898 214.512 5.61846 214.676 6.20811L216.364 12.3175L217.955 6.48655C218.168 5.73311 218.84 5.20898 219.627 5.20898C220.414 5.20898 221.103 5.73311 221.3 6.48655L222.89 12.3175L224.579 6.20811C224.743 5.61846 225.284 5.20898 225.891 5.20898H225.94C226.842 5.20898 227.498 6.07707 227.252 6.94516L224.94 15.0855C224.71 15.9209 223.94 16.4941 223.054 16.4941Z" fill="#B2B2B2"/>
<path d="M22.876 15.098C22.6427 15.098 22.4607 15.0327 22.33 14.902C22.2087 14.7713 22.148 14.5893 22.148 14.356V5.872C22.148 5.62933 22.2133 5.44733 22.344 5.326C22.4747 5.19533 22.6567 5.13 22.89 5.13H26.236C27.3 5.13 28.1213 5.396 28.7 5.928C29.2787 6.45067 29.568 7.188 29.568 8.14C29.568 9.10133 29.2787 9.848 28.7 10.38C28.1213 10.9027 27.3 11.164 26.236 11.164H23.604V14.356C23.604 14.5893 23.5433 14.7713 23.422 14.902C23.3007 15.0327 23.1187 15.098 22.876 15.098ZM23.604 10.002H26.026C26.726 10.002 27.2533 9.848 27.608 9.54C27.972 9.22267 28.154 8.756 28.154 8.14C28.154 7.53333 27.972 7.076 27.608 6.768C27.2533 6.45067 26.726 6.292 26.026 6.292H23.604V10.002ZM32.8186 15.126C32.3426 15.126 31.9133 15.0327 31.5306 14.846C31.1573 14.6593 30.8633 14.4073 30.6486 14.09C30.434 13.7727 30.3266 13.4133 30.3266 13.012C30.3266 12.508 30.4526 12.1113 30.7046 11.822C30.966 11.5233 31.3906 11.3133 31.9786 11.192C32.576 11.0613 33.3786 10.996 34.3866 10.996H35.0446V11.864H34.4006C33.7286 11.864 33.1966 11.8967 32.8046 11.962C32.4126 12.0273 32.1326 12.1393 31.9646 12.298C31.806 12.4473 31.7266 12.6573 31.7266 12.928C31.7266 13.2827 31.848 13.572 32.0906 13.796C32.3333 14.0107 32.6693 14.118 33.0986 14.118C33.444 14.118 33.7473 14.0387 34.0086 13.88C34.27 13.712 34.4753 13.488 34.6246 13.208C34.7833 12.928 34.8626 12.606 34.8626 12.242V10.632C34.8626 10.1 34.7506 9.71733 34.5266 9.484C34.3026 9.25067 33.934 9.134 33.4206 9.134C33.122 9.134 32.8093 9.17133 32.4826 9.246C32.1653 9.32067 31.834 9.44667 31.4886 9.624C31.33 9.69867 31.1946 9.722 31.0826 9.694C30.9706 9.666 30.882 9.60533 30.8166 9.512C30.7513 9.40933 30.714 9.302 30.7046 9.19C30.7046 9.06867 30.7326 8.952 30.7886 8.84C30.854 8.728 30.9613 8.644 31.1106 8.588C31.5213 8.392 31.9273 8.252 32.3286 8.168C32.73 8.084 33.108 8.042 33.4626 8.042C34.088 8.042 34.6013 8.14 35.0026 8.336C35.4133 8.532 35.7166 8.83067 35.9126 9.232C36.1086 9.63333 36.2066 10.1513 36.2066 10.786V14.384C36.2066 14.608 36.1506 14.7853 36.0386 14.916C35.9266 15.0373 35.7633 15.098 35.5486 15.098C35.3433 15.098 35.18 15.0373 35.0586 14.916C34.9373 14.7853 34.8766 14.608 34.8766 14.384V13.474H35.0026C34.928 13.8193 34.788 14.118 34.5826 14.37C34.3866 14.6127 34.1393 14.7993 33.8406 14.93C33.542 15.0607 33.2013 15.126 32.8186 15.126ZM41.2482 17.646C40.7442 17.646 40.2542 17.5947 39.7782 17.492C39.3115 17.3893 38.8868 17.2213 38.5042 16.988C38.3642 16.9133 38.2708 16.82 38.2242 16.708C38.1775 16.6053 38.1635 16.498 38.1822 16.386C38.2102 16.274 38.2615 16.176 38.3362 16.092C38.4108 16.008 38.4995 15.952 38.6022 15.924C38.7142 15.896 38.8308 15.9147 38.9522 15.98C39.3628 16.204 39.7502 16.3533 40.1142 16.428C40.4875 16.512 40.8328 16.554 41.1502 16.554C41.8035 16.554 42.2935 16.386 42.6202 16.05C42.9468 15.7233 43.1102 15.238 43.1102 14.594V13.166H43.2362C43.0962 13.6793 42.8022 14.0853 42.3542 14.384C41.9062 14.6827 41.3882 14.832 40.8002 14.832C40.1842 14.832 39.6475 14.692 39.1902 14.412C38.7328 14.1227 38.3782 13.726 38.1262 13.222C37.8742 12.7087 37.7482 12.1113 37.7482 11.43C37.7482 10.9167 37.8182 10.4547 37.9582 10.044C38.1075 9.63333 38.3128 9.27867 38.5742 8.98C38.8448 8.68133 39.1668 8.45267 39.5402 8.294C39.9228 8.126 40.3428 8.042 40.8002 8.042C41.3975 8.042 41.9155 8.19133 42.3542 8.49C42.8022 8.78867 43.0915 9.19467 43.2222 9.708L43.0822 9.946V8.784C43.0822 8.55067 43.1428 8.37333 43.2642 8.252C43.3948 8.13067 43.5675 8.07 43.7822 8.07C44.0062 8.07 44.1788 8.13067 44.3002 8.252C44.4215 8.37333 44.4822 8.55067 44.4822 8.784V14.426C44.4822 15.49 44.2068 16.2927 43.6562 16.834C43.1055 17.3753 42.3028 17.646 41.2482 17.646ZM41.1362 13.726C41.5468 13.726 41.8968 13.6327 42.1862 13.446C42.4755 13.2593 42.6995 12.9933 42.8582 12.648C43.0168 12.3027 43.0962 11.8967 43.0962 11.43C43.0962 10.73 42.9188 10.1747 42.5642 9.764C42.2188 9.35333 41.7428 9.148 41.1362 9.148C40.7348 9.148 40.3895 9.24133 40.1002 9.428C39.8108 9.61467 39.5822 9.88067 39.4142 10.226C39.2555 10.562 39.1762 10.9633 39.1762 11.43C39.1762 12.1393 39.3535 12.6993 39.7082 13.11C40.0628 13.5207 40.5388 13.726 41.1362 13.726ZM48.6507 15.126C48.1747 15.126 47.7453 15.0327 47.3627 14.846C46.9893 14.6593 46.6953 14.4073 46.4807 14.09C46.266 13.7727 46.1587 13.4133 46.1587 13.012C46.1587 12.508 46.2847 12.1113 46.5367 11.822C46.798 11.5233 47.2227 11.3133 47.8107 11.192C48.408 11.0613 49.2107 10.996 50.2187 10.996H50.8767V11.864H50.2327C49.5607 11.864 49.0287 11.8967 48.6367 11.962C48.2447 12.0273 47.9647 12.1393 47.7967 12.298C47.638 12.4473 47.5587 12.6573 47.5587 12.928C47.5587 13.2827 47.68 13.572 47.9227 13.796C48.1653 14.0107 48.5013 14.118 48.9307 14.118C49.276 14.118 49.5793 14.0387 49.8407 13.88C50.102 13.712 50.3073 13.488 50.4567 13.208C50.6153 12.928 50.6947 12.606 50.6947 12.242V10.632C50.6947 10.1 50.5827 9.71733 50.3587 9.484C50.1347 9.25067 49.766 9.134 49.2527 9.134C48.954 9.134 48.6413 9.17133 48.3147 9.246C47.9973 9.32067 47.666 9.44667 47.3207 9.624C47.162 9.69867 47.0267 9.722 46.9147 9.694C46.8027 9.666 46.714 9.60533 46.6487 9.512C46.5833 9.40933 46.546 9.302 46.5367 9.19C46.5367 9.06867 46.5647 8.952 46.6207 8.84C46.686 8.728 46.7933 8.644 46.9427 8.588C47.3533 8.392 47.7593 8.252 48.1607 8.168C48.562 8.084 48.94 8.042 49.2947 8.042C49.92 8.042 50.4333 8.14 50.8347 8.336C51.2453 8.532 51.5487 8.83067 51.7447 9.232C51.9407 9.63333 52.0387 10.1513 52.0387 10.786V14.384C52.0387 14.608 51.9827 14.7853 51.8707 14.916C51.7587 15.0373 51.5953 15.098 51.3807 15.098C51.1753 15.098 51.012 15.0373 50.8907 14.916C50.7693 14.7853 50.7087 14.608 50.7087 14.384V13.474H50.8347C50.76 13.8193 50.62 14.118 50.4147 14.37C50.2187 14.6127 49.9713 14.7993 49.6727 14.93C49.374 15.0607 49.0333 15.126 48.6507 15.126ZM54.7142 15.098C54.4902 15.098 54.3175 15.0373 54.1962 14.916C54.0749 14.7853 54.0142 14.608 54.0142 14.384V8.784C54.0142 8.55067 54.0749 8.37333 54.1962 8.252C54.3175 8.13067 54.4855 8.07 54.7002 8.07C54.9242 8.07 55.0922 8.13067 55.2042 8.252C55.3255 8.37333 55.3862 8.55067 55.3862 8.784V9.932L55.2322 9.624C55.4189 9.12933 55.7082 8.742 56.1002 8.462C56.4922 8.182 56.9635 8.042 57.5142 8.042C58.0835 8.042 58.5455 8.17733 58.9002 8.448C59.2549 8.71867 59.4975 9.134 59.6282 9.694H59.4322C59.6095 9.18067 59.9129 8.77933 60.3422 8.49C60.7715 8.19133 61.2709 8.042 61.8402 8.042C62.3629 8.042 62.7922 8.14467 63.1282 8.35C63.4642 8.546 63.7162 8.84933 63.8842 9.26C64.0522 9.66133 64.1362 10.17 64.1362 10.786V14.384C64.1362 14.608 64.0709 14.7853 63.9402 14.916C63.8189 15.0373 63.6462 15.098 63.4222 15.098C63.1982 15.098 63.0255 15.0373 62.9042 14.916C62.7829 14.7853 62.7222 14.608 62.7222 14.384V10.856C62.7222 10.2773 62.6195 9.85267 62.4142 9.582C62.2182 9.31133 61.8915 9.176 61.4342 9.176C60.9209 9.176 60.5149 9.35333 60.2162 9.708C59.9175 10.0627 59.7682 10.5527 59.7682 11.178V14.384C59.7682 14.608 59.7075 14.7853 59.5862 14.916C59.4649 15.0373 59.2922 15.098 59.0682 15.098C58.8442 15.098 58.6669 15.0373 58.5362 14.916C58.4149 14.7853 58.3542 14.608 58.3542 14.384V10.856C58.3542 10.2773 58.2562 9.85267 58.0602 9.582C57.8642 9.31133 57.5375 9.176 57.0802 9.176C56.5669 9.176 56.1609 9.35333 55.8622 9.708C55.5729 10.0627 55.4282 10.5527 55.4282 11.178V14.384C55.4282 14.86 55.1902 15.098 54.7142 15.098ZM69.3191 15.126C68.5725 15.126 67.9285 14.986 67.3871 14.706C66.8551 14.4167 66.4398 14.0107 66.1411 13.488C65.8518 12.956 65.7071 12.326 65.7071 11.598C65.7071 10.8887 65.8518 10.268 66.1411 9.736C66.4305 9.204 66.8271 8.78867 67.3311 8.49C67.8351 8.19133 68.4091 8.042 69.0531 8.042C69.5291 8.042 69.9538 8.12133 70.3271 8.28C70.7005 8.42933 71.0178 8.65333 71.2791 8.952C71.5498 9.24133 71.7505 9.596 71.8811 10.016C72.0211 10.436 72.0911 10.9073 72.0911 11.43C72.0911 11.5887 72.0445 11.71 71.9511 11.794C71.8578 11.8687 71.7178 11.906 71.5311 11.906H66.8271V11.038H71.1391L70.9011 11.234C70.9011 10.7673 70.8311 10.3707 70.6911 10.044C70.5605 9.71733 70.3598 9.47 70.0891 9.302C69.8278 9.12467 69.5011 9.036 69.1091 9.036C68.6705 9.036 68.2971 9.13867 67.9891 9.344C67.6905 9.54933 67.4618 9.834 67.3031 10.198C67.1445 10.562 67.0651 10.9867 67.0651 11.472V11.556C67.0651 12.3773 67.2565 12.998 67.6391 13.418C68.0311 13.8287 68.5958 14.034 69.3331 14.034C69.6131 14.034 69.9071 13.9967 70.2151 13.922C70.5325 13.8473 70.8311 13.7213 71.1111 13.544C71.2698 13.4507 71.4098 13.4087 71.5311 13.418C71.6618 13.4273 71.7645 13.4693 71.8391 13.544C71.9231 13.6187 71.9745 13.712 71.9931 13.824C72.0118 13.936 71.9931 14.0527 71.9371 14.174C71.8811 14.286 71.7831 14.3887 71.6431 14.482C71.3258 14.6967 70.9571 14.86 70.5371 14.972C70.1171 15.0747 69.7111 15.126 69.3191 15.126ZM74.3327 15.098C74.1087 15.098 73.936 15.0373 73.8147 14.916C73.6933 14.7853 73.6327 14.608 73.6327 14.384V8.784C73.6327 8.55067 73.6933 8.37333 73.8147 8.252C73.936 8.13067 74.104 8.07 74.3187 8.07C74.5427 8.07 74.7107 8.13067 74.8227 8.252C74.944 8.37333 75.0047 8.55067 75.0047 8.784V9.876L74.8507 9.624C75.056 9.10133 75.378 8.70933 75.8167 8.448C76.2553 8.17733 76.7593 8.042 77.3287 8.042C77.87 8.042 78.318 8.14467 78.6727 8.35C79.0367 8.546 79.3073 8.84933 79.4847 9.26C79.662 9.66133 79.7507 10.17 79.7507 10.786V14.384C79.7507 14.608 79.69 14.7853 79.5687 14.916C79.4473 15.0373 79.2747 15.098 79.0507 15.098C78.8173 15.098 78.64 15.0373 78.5187 14.916C78.3973 14.7853 78.3367 14.608 78.3367 14.384V10.87C78.3367 10.282 78.22 9.85267 77.9867 9.582C77.7627 9.31133 77.408 9.176 76.9227 9.176C76.3533 9.176 75.896 9.35333 75.5507 9.708C75.2147 10.0627 75.0467 10.5387 75.0467 11.136V14.384C75.0467 14.86 74.8087 15.098 74.3327 15.098ZM84.6111 15.126C84.0511 15.126 83.5797 15.028 83.1971 14.832C82.8144 14.636 82.5297 14.3467 82.3431 13.964C82.1564 13.5813 82.0631 13.1147 82.0631 12.564V9.26H81.2231C81.0364 9.26 80.8917 9.21333 80.7891 9.12C80.6864 9.01733 80.6351 8.882 80.6351 8.714C80.6351 8.53667 80.6864 8.40133 80.7891 8.308C80.8917 8.21467 81.0364 8.168 81.2231 8.168H82.0631V6.726C82.0631 6.49267 82.1237 6.31533 82.2451 6.194C82.3757 6.07267 82.5531 6.012 82.7771 6.012C83.0011 6.012 83.1737 6.07267 83.2951 6.194C83.4164 6.31533 83.4771 6.49267 83.4771 6.726V8.168H85.1151C85.3017 8.168 85.4464 8.21467 85.5491 8.308C85.6517 8.40133 85.7031 8.53667 85.7031 8.714C85.7031 8.882 85.6517 9.01733 85.5491 9.12C85.4464 9.21333 85.3017 9.26 85.1151 9.26H83.4771V12.452C83.4771 12.9467 83.5797 13.32 83.7851 13.572C83.9997 13.824 84.3451 13.95 84.8211 13.95C84.9891 13.95 85.1337 13.936 85.2551 13.908C85.3857 13.8707 85.4931 13.8473 85.5771 13.838C85.6797 13.838 85.7637 13.8753 85.8291 13.95C85.8944 14.0153 85.9271 14.146 85.9271 14.342C85.9271 14.482 85.8991 14.6127 85.8431 14.734C85.7964 14.8553 85.7077 14.9347 85.5771 14.972C85.4651 15.0093 85.3111 15.042 85.1151 15.07C84.9284 15.1073 84.7604 15.126 84.6111 15.126ZM89.712 15.126C89.0213 15.126 88.424 14.9813 87.92 14.692C87.4253 14.4027 87.038 13.992 86.758 13.46C86.478 12.928 86.338 12.3027 86.338 11.584C86.338 11.0333 86.4173 10.5433 86.576 10.114C86.7347 9.68467 86.9587 9.316 87.248 9.008C87.5467 8.69067 87.9013 8.45267 88.312 8.294C88.732 8.126 89.1987 8.042 89.712 8.042C90.3933 8.042 90.9813 8.18667 91.476 8.476C91.98 8.76533 92.372 9.176 92.652 9.708C92.932 10.2307 93.072 10.856 93.072 11.584C93.072 12.1253 92.9927 12.6153 92.834 13.054C92.6753 13.4927 92.4467 13.866 92.148 14.174C91.8587 14.482 91.504 14.72 91.084 14.888C90.6733 15.0467 90.216 15.126 89.712 15.126ZM89.712 14.034C90.0947 14.034 90.4307 13.9407 90.72 13.754C91.0093 13.5673 91.2333 13.292 91.392 12.928C91.56 12.564 91.644 12.116 91.644 11.584C91.644 10.7813 91.4667 10.1747 91.112 9.764C90.7573 9.35333 90.2907 9.148 89.712 9.148C89.32 9.148 88.9793 9.24133 88.69 9.428C88.4007 9.60533 88.172 9.876 88.004 10.24C87.8453 10.604 87.766 11.052 87.766 11.584C87.766 12.3773 87.9433 12.984 88.298 13.404C88.6527 13.824 89.124 14.034 89.712 14.034ZM99.5274 15C99.3314 15 99.1774 14.944 99.0654 14.832C98.9534 14.72 98.8974 14.5707 98.8974 14.384C98.8974 14.188 98.9534 14.0387 99.0654 13.936C99.1774 13.8333 99.3314 13.782 99.5274 13.782H101.235V6.334H101.963L99.9194 7.636C99.7701 7.72 99.6301 7.75267 99.4994 7.734C99.3781 7.71533 99.2708 7.664 99.1774 7.58C99.0934 7.496 99.0328 7.39333 98.9954 7.272C98.9674 7.15067 98.9768 7.02467 99.0234 6.894C99.0794 6.76333 99.1774 6.656 99.3174 6.572L101.249 5.354C101.408 5.26067 101.557 5.186 101.697 5.13C101.847 5.06467 101.987 5.032 102.117 5.032C102.276 5.032 102.407 5.07867 102.509 5.172C102.621 5.256 102.677 5.40067 102.677 5.606V13.782H104.245C104.451 13.782 104.609 13.8333 104.721 13.936C104.833 14.0387 104.889 14.188 104.889 14.384C104.889 14.58 104.833 14.734 104.721 14.846C104.609 14.9487 104.451 15 104.245 15H99.5274ZM109.952 15.126C108.804 15.126 107.927 14.692 107.32 13.824C106.723 12.9467 106.424 11.6913 106.424 10.058C106.424 8.94733 106.559 8.01867 106.83 7.272C107.101 6.52533 107.497 5.96067 108.02 5.578C108.543 5.19533 109.187 5.004 109.952 5.004C111.109 5.004 111.987 5.43333 112.584 6.292C113.181 7.14133 113.48 8.392 113.48 10.044C113.48 11.136 113.345 12.06 113.074 12.816C112.803 13.572 112.407 14.146 111.884 14.538C111.361 14.93 110.717 15.126 109.952 15.126ZM109.952 13.922C110.671 13.922 111.198 13.6093 111.534 12.984C111.879 12.3493 112.052 11.3693 112.052 10.044C112.052 8.70933 111.879 7.73867 111.534 7.132C111.198 6.516 110.671 6.208 109.952 6.208C109.243 6.208 108.715 6.516 108.37 7.132C108.025 7.73867 107.852 8.70933 107.852 10.044C107.852 11.3693 108.025 12.3493 108.37 12.984C108.715 13.6093 109.243 13.922 109.952 13.922ZM118.346 15.126C117.198 15.126 116.321 14.692 115.714 13.824C115.117 12.9467 114.818 11.6913 114.818 10.058C114.818 8.94733 114.954 8.01867 115.224 7.272C115.495 6.52533 115.892 5.96067 116.414 5.578C116.937 5.19533 117.581 5.004 118.346 5.004C119.504 5.004 120.381 5.43333 120.978 6.292C121.576 7.14133 121.874 8.392 121.874 10.044C121.874 11.136 121.739 12.06 121.468 12.816C121.198 13.572 120.801 14.146 120.278 14.538C119.756 14.93 119.112 15.126 118.346 15.126ZM118.346 13.922C119.065 13.922 119.592 13.6093 119.928 12.984C120.274 12.3493 120.446 11.3693 120.446 10.044C120.446 8.70933 120.274 7.73867 119.928 7.132C119.592 6.516 119.065 6.208 118.346 6.208C117.637 6.208 117.11 6.516 116.764 7.132C116.419 7.73867 116.246 8.70933 116.246 10.044C116.246 11.3693 116.419 12.3493 116.764 12.984C117.11 13.6093 117.637 13.922 118.346 13.922ZM126.923 14.958C126.848 15.098 126.75 15.1913 126.629 15.238C126.517 15.2847 126.405 15.294 126.293 15.266C126.181 15.238 126.088 15.182 126.013 15.098C125.938 15.014 125.892 14.9113 125.873 14.79C125.864 14.6687 125.896 14.538 125.971 14.398L131.263 5.2C131.338 5.05067 131.431 4.95267 131.543 4.906C131.664 4.85933 131.776 4.85 131.879 4.878C131.991 4.906 132.084 4.962 132.159 5.046C132.243 5.13 132.294 5.23267 132.313 5.354C132.332 5.47533 132.299 5.606 132.215 5.746L126.923 14.958ZM125.677 11.038C124.912 11.038 124.314 10.772 123.885 10.24C123.456 9.69867 123.241 8.95667 123.241 8.014C123.241 7.37933 123.339 6.838 123.535 6.39C123.731 5.942 124.011 5.60133 124.375 5.368C124.739 5.12533 125.173 5.004 125.677 5.004C126.433 5.004 127.026 5.27 127.455 5.802C127.894 6.334 128.113 7.07133 128.113 8.014C128.113 8.63933 128.015 9.18067 127.819 9.638C127.632 10.086 127.357 10.4313 126.993 10.674C126.629 10.9167 126.19 11.038 125.677 11.038ZM125.677 10.044C125.938 10.044 126.162 9.96933 126.349 9.82C126.536 9.67067 126.676 9.44667 126.769 9.148C126.872 8.84933 126.923 8.47133 126.923 8.014C126.923 7.33267 126.811 6.824 126.587 6.488C126.372 6.152 126.069 5.984 125.677 5.984C125.416 5.984 125.192 6.05867 125.005 6.208C124.818 6.35733 124.674 6.58133 124.571 6.88C124.478 7.17867 124.431 7.55667 124.431 8.014C124.431 8.70467 124.538 9.218 124.753 9.554C124.977 9.88067 125.285 10.044 125.677 10.044ZM132.523 15.126C131.767 15.126 131.174 14.86 130.745 14.328C130.316 13.796 130.101 13.054 130.101 12.102C130.101 11.4767 130.194 10.94 130.381 10.492C130.577 10.044 130.857 9.69867 131.221 9.456C131.585 9.21333 132.019 9.092 132.523 9.092C133.288 9.092 133.886 9.36267 134.315 9.904C134.744 10.436 134.959 11.1687 134.959 12.102C134.959 12.7367 134.861 13.2827 134.665 13.74C134.478 14.188 134.203 14.5333 133.839 14.776C133.475 15.0093 133.036 15.126 132.523 15.126ZM132.523 14.146C132.784 14.146 133.008 14.0713 133.195 13.922C133.382 13.7727 133.522 13.5487 133.615 13.25C133.718 12.942 133.769 12.5593 133.769 12.102C133.769 11.43 133.657 10.926 133.433 10.59C133.218 10.254 132.915 10.086 132.523 10.086C132.271 10.086 132.047 10.1607 131.851 10.31C131.664 10.4593 131.52 10.6833 131.417 10.982C131.324 11.2807 131.277 11.654 131.277 12.102C131.277 12.7927 131.389 13.306 131.613 13.642C131.837 13.978 132.14 14.146 132.523 14.146ZM142.732 15.126C142.321 15.126 141.896 15.0793 141.458 14.986C141.028 14.8927 140.632 14.734 140.268 14.51C140.146 14.426 140.062 14.3327 140.016 14.23C139.969 14.1273 139.95 14.0247 139.96 13.922C139.978 13.81 140.02 13.7167 140.086 13.642C140.16 13.558 140.249 13.5067 140.352 13.488C140.464 13.4693 140.58 13.4927 140.702 13.558C141.066 13.7633 141.416 13.908 141.752 13.992C142.088 14.0667 142.419 14.104 142.746 14.104C143.24 14.104 143.614 14.0153 143.866 13.838C144.118 13.6607 144.244 13.4227 144.244 13.124C144.244 12.8813 144.16 12.6947 143.992 12.564C143.824 12.424 143.572 12.3167 143.236 12.242L141.906 11.976C141.327 11.8547 140.888 11.64 140.59 11.332C140.291 11.024 140.142 10.632 140.142 10.156C140.142 9.72667 140.258 9.35333 140.492 9.036C140.725 8.71867 141.052 8.476 141.472 8.308C141.892 8.13067 142.377 8.042 142.928 8.042C143.338 8.042 143.726 8.09333 144.09 8.196C144.454 8.29867 144.79 8.45267 145.098 8.658C145.219 8.72333 145.298 8.812 145.336 8.924C145.373 9.02667 145.378 9.12933 145.35 9.232C145.331 9.33467 145.284 9.428 145.21 9.512C145.135 9.58667 145.042 9.63333 144.93 9.652C144.827 9.66133 144.71 9.63333 144.58 9.568C144.3 9.39067 144.02 9.26467 143.74 9.19C143.469 9.11533 143.198 9.078 142.928 9.078C142.433 9.078 142.06 9.17133 141.808 9.358C141.565 9.53533 141.444 9.778 141.444 10.086C141.444 10.3193 141.518 10.5107 141.668 10.66C141.817 10.8093 142.05 10.9167 142.368 10.982L143.698 11.248C144.304 11.3693 144.762 11.5747 145.07 11.864C145.387 12.1533 145.546 12.5453 145.546 13.04C145.546 13.684 145.289 14.1927 144.776 14.566C144.262 14.9393 143.581 15.126 142.732 15.126ZM150.325 15.126C149.578 15.126 148.934 14.986 148.393 14.706C147.861 14.4167 147.446 14.0107 147.147 13.488C146.858 12.956 146.713 12.326 146.713 11.598C146.713 10.8887 146.858 10.268 147.147 9.736C147.436 9.204 147.833 8.78867 148.337 8.49C148.841 8.19133 149.415 8.042 150.059 8.042C150.535 8.042 150.96 8.12133 151.333 8.28C151.706 8.42933 152.024 8.65333 152.285 8.952C152.556 9.24133 152.756 9.596 152.887 10.016C153.027 10.436 153.097 10.9073 153.097 11.43C153.097 11.5887 153.05 11.71 152.957 11.794C152.864 11.8687 152.724 11.906 152.537 11.906H147.833V11.038H152.145L151.907 11.234C151.907 10.7673 151.837 10.3707 151.697 10.044C151.566 9.71733 151.366 9.47 151.095 9.302C150.834 9.12467 150.507 9.036 150.115 9.036C149.676 9.036 149.303 9.13867 148.995 9.344C148.696 9.54933 148.468 9.834 148.309 10.198C148.15 10.562 148.071 10.9867 148.071 11.472V11.556C148.071 12.3773 148.262 12.998 148.645 13.418C149.037 13.8287 149.602 14.034 150.339 14.034C150.619 14.034 150.913 13.9967 151.221 13.922C151.538 13.8473 151.837 13.7213 152.117 13.544C152.276 13.4507 152.416 13.4087 152.537 13.418C152.668 13.4273 152.77 13.4693 152.845 13.544C152.929 13.6187 152.98 13.712 152.999 13.824C153.018 13.936 152.999 14.0527 152.943 14.174C152.887 14.286 152.789 14.3887 152.649 14.482C152.332 14.6967 151.963 14.86 151.543 14.972C151.123 15.0747 150.717 15.126 150.325 15.126ZM157.733 17.646C157.229 17.646 156.739 17.5947 156.263 17.492C155.796 17.3893 155.371 17.2213 154.989 16.988C154.849 16.9133 154.755 16.82 154.709 16.708C154.662 16.6053 154.648 16.498 154.667 16.386C154.695 16.274 154.746 16.176 154.821 16.092C154.895 16.008 154.984 15.952 155.087 15.924C155.199 15.896 155.315 15.9147 155.437 15.98C155.847 16.204 156.235 16.3533 156.599 16.428C156.972 16.512 157.317 16.554 157.635 16.554C158.288 16.554 158.778 16.386 159.105 16.05C159.431 15.7233 159.595 15.238 159.595 14.594V13.166H159.721C159.581 13.6793 159.287 14.0853 158.839 14.384C158.391 14.6827 157.873 14.832 157.285 14.832C156.669 14.832 156.132 14.692 155.675 14.412C155.217 14.1227 154.863 13.726 154.611 13.222C154.359 12.7087 154.233 12.1113 154.233 11.43C154.233 10.9167 154.303 10.4547 154.443 10.044C154.592 9.63333 154.797 9.27867 155.059 8.98C155.329 8.68133 155.651 8.45267 156.025 8.294C156.407 8.126 156.827 8.042 157.285 8.042C157.882 8.042 158.4 8.19133 158.839 8.49C159.287 8.78867 159.576 9.19467 159.707 9.708L159.567 9.946V8.784C159.567 8.55067 159.627 8.37333 159.749 8.252C159.879 8.13067 160.052 8.07 160.267 8.07C160.491 8.07 160.663 8.13067 160.785 8.252C160.906 8.37333 160.967 8.55067 160.967 8.784V14.426C160.967 15.49 160.691 16.2927 160.141 16.834C159.59 17.3753 158.787 17.646 157.733 17.646ZM157.621 13.726C158.031 13.726 158.381 13.6327 158.671 13.446C158.96 13.2593 159.184 12.9933 159.343 12.648C159.501 12.3027 159.581 11.8967 159.581 11.43C159.581 10.73 159.403 10.1747 159.049 9.764C158.703 9.35333 158.227 9.148 157.621 9.148C157.219 9.148 156.874 9.24133 156.585 9.428C156.295 9.61467 156.067 9.88067 155.899 10.226C155.74 10.562 155.661 10.9633 155.661 11.43C155.661 12.1393 155.838 12.6993 156.193 13.11C156.547 13.5207 157.023 13.726 157.621 13.726ZM165.387 15.126C164.836 15.126 164.374 15.0233 164.001 14.818C163.637 14.6127 163.362 14.3093 163.175 13.908C162.998 13.4973 162.909 12.984 162.909 12.368V8.784C162.909 8.54133 162.97 8.364 163.091 8.252C163.212 8.13067 163.385 8.07 163.609 8.07C163.833 8.07 164.006 8.13067 164.127 8.252C164.258 8.364 164.323 8.54133 164.323 8.784V12.382C164.323 12.9327 164.435 13.3387 164.659 13.6C164.883 13.8613 165.238 13.992 165.723 13.992C166.255 13.992 166.684 13.8147 167.011 13.46C167.347 13.096 167.515 12.62 167.515 12.032V8.784C167.515 8.54133 167.576 8.364 167.697 8.252C167.818 8.13067 167.996 8.07 168.229 8.07C168.453 8.07 168.626 8.13067 168.747 8.252C168.868 8.364 168.929 8.54133 168.929 8.784V14.384C168.929 14.86 168.7 15.098 168.243 15.098C168.028 15.098 167.86 15.0373 167.739 14.916C167.618 14.7853 167.557 14.608 167.557 14.384V13.194L167.739 13.502C167.552 14.0247 167.254 14.426 166.843 14.706C166.432 14.986 165.947 15.126 165.387 15.126ZM171.636 15.098C171.402 15.098 171.225 15.0373 171.104 14.916C170.982 14.7853 170.922 14.608 170.922 14.384V8.784C170.922 8.55067 170.982 8.37333 171.104 8.252C171.225 8.13067 171.393 8.07 171.608 8.07C171.832 8.07 172 8.13067 172.112 8.252C172.233 8.37333 172.294 8.55067 172.294 8.784V9.806H172.154C172.303 9.246 172.578 8.82133 172.98 8.532C173.381 8.24267 173.894 8.07467 174.52 8.028C174.688 8.01867 174.818 8.06067 174.912 8.154C175.014 8.24733 175.07 8.392 175.08 8.588C175.098 8.784 175.056 8.94267 174.954 9.064C174.851 9.176 174.692 9.24133 174.478 9.26L174.212 9.288C173.605 9.344 173.143 9.53533 172.826 9.862C172.508 10.1887 172.35 10.6367 172.35 11.206V14.384C172.35 14.608 172.289 14.7853 172.168 14.916C172.056 15.0373 171.878 15.098 171.636 15.098ZM179.017 15.126C178.326 15.126 177.729 14.9813 177.225 14.692C176.73 14.4027 176.343 13.992 176.063 13.46C175.783 12.928 175.643 12.3027 175.643 11.584C175.643 11.0333 175.722 10.5433 175.881 10.114C176.039 9.68467 176.263 9.316 176.553 9.008C176.851 8.69067 177.206 8.45267 177.617 8.294C178.037 8.126 178.503 8.042 179.017 8.042C179.698 8.042 180.286 8.18667 180.781 8.476C181.285 8.76533 181.677 9.176 181.957 9.708C182.237 10.2307 182.377 10.856 182.377 11.584C182.377 12.1253 182.297 12.6153 182.139 13.054C181.98 13.4927 181.751 13.866 181.453 14.174C181.163 14.482 180.809 14.72 180.389 14.888C179.978 15.0467 179.521 15.126 179.017 15.126ZM179.017 14.034C179.399 14.034 179.735 13.9407 180.025 13.754C180.314 13.5673 180.538 13.292 180.697 12.928C180.865 12.564 180.949 12.116 180.949 11.584C180.949 10.7813 180.771 10.1747 180.417 9.764C180.062 9.35333 179.595 9.148 179.017 9.148C178.625 9.148 178.284 9.24133 177.995 9.428C177.705 9.60533 177.477 9.876 177.309 10.24C177.15 10.604 177.071 11.052 177.071 11.584C177.071 12.3773 177.248 12.984 177.603 13.404C177.957 13.824 178.429 14.034 179.017 14.034ZM190.302 15.098C190.106 15.098 189.933 15.0467 189.784 14.944C189.644 14.8413 189.527 14.6827 189.434 14.468L187.096 9.036C187.021 8.868 186.993 8.70933 187.012 8.56C187.031 8.41067 187.101 8.294 187.222 8.21C187.343 8.11667 187.507 8.07 187.712 8.07C187.889 8.07 188.029 8.112 188.132 8.196C188.235 8.28 188.328 8.42467 188.412 8.63L190.526 13.838H190.134L192.29 8.63C192.374 8.42467 192.467 8.28 192.57 8.196C192.682 8.112 192.836 8.07 193.032 8.07C193.2 8.07 193.331 8.11667 193.424 8.21C193.527 8.294 193.587 8.41067 193.606 8.56C193.634 8.7 193.611 8.854 193.536 9.022L191.17 14.468C191.086 14.6827 190.969 14.8413 190.82 14.944C190.671 15.0467 190.498 15.098 190.302 15.098ZM195.63 15.084C195.406 15.084 195.233 15.0187 195.112 14.888C194.99 14.748 194.93 14.5567 194.93 14.314V8.854C194.93 8.61133 194.99 8.42467 195.112 8.294C195.233 8.16333 195.406 8.098 195.63 8.098C195.854 8.098 196.026 8.16333 196.148 8.294C196.278 8.42467 196.344 8.61133 196.344 8.854V14.314C196.344 14.5567 196.283 14.748 196.162 14.888C196.04 15.0187 195.863 15.084 195.63 15.084ZM195.63 6.642C195.35 6.642 195.13 6.572 194.972 6.432C194.822 6.292 194.748 6.096 194.748 5.844C194.748 5.58267 194.822 5.38667 194.972 5.256C195.13 5.116 195.35 5.046 195.63 5.046C195.91 5.046 196.124 5.116 196.274 5.256C196.432 5.38667 196.512 5.58267 196.512 5.844C196.512 6.096 196.432 6.292 196.274 6.432C196.124 6.572 195.91 6.642 195.63 6.642ZM200.518 15.126C200.042 15.126 199.613 15.0327 199.23 14.846C198.857 14.6593 198.563 14.4073 198.348 14.09C198.133 13.7727 198.026 13.4133 198.026 13.012C198.026 12.508 198.152 12.1113 198.404 11.822C198.665 11.5233 199.09 11.3133 199.678 11.192C200.275 11.0613 201.078 10.996 202.086 10.996H202.744V11.864H202.1C201.428 11.864 200.896 11.8967 200.504 11.962C200.112 12.0273 199.832 12.1393 199.664 12.298C199.505 12.4473 199.426 12.6573 199.426 12.928C199.426 13.2827 199.547 13.572 199.79 13.796C200.033 14.0107 200.369 14.118 200.798 14.118C201.143 14.118 201.447 14.0387 201.708 13.88C201.969 13.712 202.175 13.488 202.324 13.208C202.483 12.928 202.562 12.606 202.562 12.242V10.632C202.562 10.1 202.45 9.71733 202.226 9.484C202.002 9.25067 201.633 9.134 201.12 9.134C200.821 9.134 200.509 9.17133 200.182 9.246C199.865 9.32067 199.533 9.44667 199.188 9.624C199.029 9.69867 198.894 9.722 198.782 9.694C198.67 9.666 198.581 9.60533 198.516 9.512C198.451 9.40933 198.413 9.302 198.404 9.19C198.404 9.06867 198.432 8.952 198.488 8.84C198.553 8.728 198.661 8.644 198.81 8.588C199.221 8.392 199.627 8.252 200.028 8.168C200.429 8.084 200.807 8.042 201.162 8.042C201.787 8.042 202.301 8.14 202.702 8.336C203.113 8.532 203.416 8.83067 203.612 9.232C203.808 9.63333 203.906 10.1513 203.906 10.786V14.384C203.906 14.608 203.85 14.7853 203.738 14.916C203.626 15.0373 203.463 15.098 203.248 15.098C203.043 15.098 202.879 15.0373 202.758 14.916C202.637 14.7853 202.576 14.608 202.576 14.384V13.474H202.702C202.627 13.8193 202.487 14.118 202.282 14.37C202.086 14.6127 201.839 14.7993 201.54 14.93C201.241 15.0607 200.901 15.126 200.518 15.126ZM206.539 15.056C206.269 15.056 206.049 14.972 205.881 14.804C205.713 14.636 205.629 14.4213 205.629 14.16C205.629 13.8987 205.713 13.6887 205.881 13.53C206.049 13.362 206.269 13.278 206.539 13.278C206.81 13.278 207.025 13.362 207.183 13.53C207.342 13.6887 207.421 13.8987 207.421 14.16C207.421 14.4213 207.342 14.636 207.183 14.804C207.025 14.972 206.81 15.056 206.539 15.056ZM206.539 9.89C206.269 9.89 206.049 9.806 205.881 9.638C205.713 9.47 205.629 9.26 205.629 9.008C205.629 8.73733 205.713 8.52267 205.881 8.364C206.049 8.196 206.269 8.112 206.539 8.112C206.81 8.112 207.025 8.196 207.183 8.364C207.342 8.52267 207.421 8.73733 207.421 9.008C207.421 9.26 207.342 9.47 207.183 9.638C207.025 9.806 206.81 9.89 206.539 9.89Z" fill="#B2B2B2"/>
<path d="M4.91898 3.23263C3.83902 3.53027 2.76639 3.85391 1.70203 4.20327C1.60484 4.23475 1.51845 4.2929 1.45269 4.37109C1.38693 4.44927 1.34446 4.54436 1.3301 4.6455C0.701907 9.35924 2.15333 12.7984 3.88484 15.064C4.61794 16.0328 5.49207 16.8863 6.47813 17.5961C6.87047 17.8728 7.21745 18.0723 7.49073 18.2005C7.6268 18.2651 7.73792 18.3082 7.82297 18.3343C7.86016 18.3473 7.89851 18.3568 7.93749 18.3626C7.97602 18.3564 8.01395 18.3469 8.05089 18.3343C8.13706 18.3082 8.24819 18.2651 8.38426 18.2005C8.6564 18.0723 9.00452 17.8716 9.39686 17.5961C10.3829 16.8863 11.257 16.0328 11.9901 15.064C13.7217 12.7996 15.1731 9.35924 14.5449 4.6455C14.5307 4.54431 14.4882 4.44916 14.4225 4.37096C14.3567 4.29275 14.2702 4.23464 14.173 4.20327C13.4348 3.96175 12.1886 3.56827 10.956 3.23376C9.69735 2.89245 8.53961 2.63959 7.93749 2.63959C7.33651 2.63959 6.17764 2.89245 4.91898 3.23376V3.23263ZM4.61736 2.06469C5.84767 1.73018 7.15508 1.42969 7.93749 1.42969C8.7199 1.42969 10.0273 1.73018 11.2576 2.06469C12.5163 2.40486 13.7852 2.80741 14.5313 3.0512C14.8432 3.15422 15.1198 3.34315 15.3292 3.59628C15.5386 3.84942 15.6724 4.15649 15.7151 4.48222C16.3909 9.55881 14.8227 13.3212 12.92 15.8101C12.1131 16.8749 11.151 17.8125 10.0659 18.5917C9.69065 18.8613 9.29308 19.0984 8.87752 19.3004C8.56002 19.4501 8.21871 19.5725 7.93749 19.5725C7.65628 19.5725 7.3161 19.4501 6.99747 19.3004C6.5819 19.0984 6.18434 18.8613 5.80911 18.5917C4.72398 17.8125 3.7619 16.8749 2.95502 15.8101C1.05229 13.3212 -0.515931 9.55881 0.15989 4.48222C0.202624 4.15649 0.336378 3.84942 0.545784 3.59628C0.755191 3.34315 1.03176 3.15422 1.34371 3.0512C2.42683 2.69607 3.51836 2.36713 4.61736 2.06469Z" fill="#B2B2B2"/>
<path d="M11.1733 7.26422C11.2261 7.31689 11.268 7.37945 11.2966 7.44833C11.3252 7.51721 11.3399 7.59106 11.3399 7.66563C11.3399 7.74021 11.3252 7.81405 11.2966 7.88293C11.268 7.95181 11.2261 8.01438 11.1733 8.06704L7.77154 11.4688C7.71888 11.5216 7.65631 11.5635 7.58743 11.5921C7.51855 11.6207 7.44471 11.6354 7.37013 11.6354C7.29556 11.6354 7.22171 11.6207 7.15283 11.5921C7.08395 11.5635 7.02139 11.5216 6.96872 11.4688L5.26783 9.76793C5.21512 9.71522 5.1733 9.65264 5.14477 9.58376C5.11625 9.51489 5.10156 9.44107 5.10156 9.36652C5.10156 9.29197 5.11625 9.21816 5.14477 9.14928C5.1733 9.08041 5.21512 9.01783 5.26783 8.96511C5.32055 8.9124 5.38313 8.87058 5.452 8.84206C5.52087 8.81353 5.59469 8.79884 5.66924 8.79884C5.74379 8.79884 5.81761 8.81353 5.88648 8.84206C5.95536 8.87058 6.01794 8.9124 6.07065 8.96511L7.37013 10.2657L10.3705 7.26422C10.4232 7.21142 10.4857 7.16953 10.5546 7.14095C10.6235 7.11237 10.6973 7.09766 10.7719 7.09766C10.8465 7.09766 10.9203 7.11237 10.9892 7.14095C11.0581 7.16953 11.1207 7.21142 11.1733 7.26422Z" fill="#B2B2B2"/>
</svg>
